PathFileType	4	(X/Y/Z)
DataRate	CameraRate	NumFrames	NumMarkers	Units	OrigDataRate	OrigDataStartFrame	OrigNumFrames	
	120.0	120.0	10	39	mm	120.0	1	201
Frame#	Time	midhip	hip_r	hip_l	knee_r	knee_l	ankle_r	ankle_l	midasis	asis_r	asis_l	psis_r	psis_l	epicondLat_r	epicondLat_l	epicondMed_r	epicondMed_l	malleolusLat_r	malleolusLat_l	malleolusMedv_r	malleolusMedv_l	heel_r	heel_l	sternalnotch	xyphoidprocess	neck	subclavicle_r	subclavicle_l	toe_r	toe_l	thighwand_r	thighwand_l	upperleg1_r	upperleg1_l	upperleg2_r	upperleg2_l	shankwand_r	shankwand_l	lowerleg1_r	lowerleg1_l
	X1	Y1	Z1	X2	Y2	Z2	X3	Y3	Z3	X4	Y4	Z4	X5	Y5	Z5	X6	Y6	Z6	X7	Y7	Z7	X8	Y8	Z8	X9	Y9	Z9	X10	Y10	Z10	X11	Y11	Z11	X12	Y12	Z12	X13	Y13	Z13	X14	Y14	Z14	X15	Y15	Z15	X16	Y16	Z16	X17	Y17	Z17	X18	Y18	Z18	X19	Y19	Z19	X20	Y20	Z20	X21	Y21	Z21	X22	Y22	Z22	X23	Y23	Z23	X24	Y24	Z24	X25	Y25	Z25	X26	Y26	Z26	X27	Y27	Z27	X28	Y28	Z28	X29	Y29	Z29	X30	Y30	Z30	X31	Y31	Z31	X32	Y32	Z32	X33	Y33	Z33	X34	Y34	Z34	X35	Y35	Z35	X36	Y36	Z36	X37	Y37	Z37	X38	Y38	Z38	X39	Y39	Z39

	1	0.00833	741.147	785.392	-243.235	720.194	790.738	-164.011	720.189	790.870	-319.640	718.851	419.888	-152.902	731.122	428.896	-333.242	716.062	59.049	-116.782	726.317	56.700	-368.462	854.832	853.486	-241.776	854.836	853.381	-118.684	854.828	853.591	-364.869	615.394	943.491	-208.067	611.714	942.022	-262.208	725.727	422.054	-79.756	724.668	431.450	-406.413	707.760	423.967	-223.811	726.010	410.776	-256.539	705.860	63.031	-77.791	702.470	60.205	-402.245	721.990	66.587	-152.673	722.353	72.114	-325.713	653.538	50.195	-124.630	672.269	47.132	-334.367	775.752	1289.873	-264.625	834.379	1221.466	-264.496	657.672	1351.441	-247.866	793.238	1297.100	-211.594	791.298	1296.740	-294.137	824.882	43.989	-105.394	821.736	48.448	-383.706	885.149	574.931	-89.038	906.982	607.163	-346.858	846.831	596.960	-109.356	858.637	622.131	-350.189	819.478	524.049	-113.412	840.206	550.697	-350.742	798.954	209.005	-103.492	685.666	175.276	-460.349	752.876	214.573	-116.916	691.693	184.445	-411.781
	2	0.01667	741.166	785.409	-243.126	720.261	790.767	-163.891	720.162	790.878	-319.520	718.841	419.908	-152.906	731.147	428.885	-333.192	716.061	59.039	-116.802	726.332	56.686	-368.446	854.859	853.491	-241.746	854.936	853.403	-118.662	854.781	853.579	-364.829	615.415	943.536	-208.080	611.749	942.047	-262.184	725.744	422.049	-79.762	724.679	431.452	-406.362	708.225	423.744	-224.187	725.912	410.854	-256.508	705.874	63.019	-77.807	702.478	60.194	-402.223	721.872	66.670	-152.712	722.414	72.139	-325.710	653.540	50.207	-124.630	672.286	47.128	-334.359	775.700	1289.747	-264.666	834.283	1221.303	-264.543	657.685	1351.390	-247.800	793.219	1296.980	-211.517	791.233	1296.594	-294.316	824.987	44.040	-105.596	821.726	48.448	-383.707	885.195	574.957	-89.010	906.995	607.143	-346.877	846.743	596.947	-109.424	858.685	622.077	-350.196	819.574	524.022	-113.564	840.206	550.697	-350.742	798.949	209.007	-103.500	685.626	175.271	-460.318	752.941	214.578	-116.794	691.681	184.456	-411.787
	3	0.02500	741.181	785.410	-243.060	720.303	790.780	-163.817	720.144	790.882	-319.446	718.854	419.941	-152.915	731.194	428.882	-333.157	716.047	59.031	-116.835	726.336	56.685	-368.430	854.875	853.490	-241.728	855.001	853.409	-118.652	854.750	853.570	-364.804	615.464	943.561	-208.078	611.755	942.050	-262.146	725.769	422.064	-79.772	724.704	431.455	-406.325	708.737	423.361	-224.256	725.961	410.845	-256.684	705.867	63.009	-77.837	702.472	60.197	-402.200	721.759	66.746	-152.757	722.306	72.213	-325.671	653.542	50.213	-124.626	672.303	47.125	-334.349	775.722	1289.688	-264.686	834.294	1221.234	-264.571	657.725	1351.368	-247.785	793.299	1296.961	-211.609	791.224	1296.508	-294.312	825.033	44.059	-105.687	821.732	48.446	-383.698	885.249	574.993	-88.983	907.017	607.133	-346.876	846.700	596.940	-109.458	858.918	622.193	-350.039	819.755	524.005	-113.591	840.275	550.687	-350.753	798.958	208.998	-103.510	685.584	175.271	-460.306	753.125	214.532	-116.638	691.567	184.487	-411.831
	4	0.03333	741.192	785.388	-243.047	720.316	790.765	-163.800	720.138	790.884	-319.429	718.890	419.978	-152.923	731.265	428.889	-333.128	716.018	59.030	-116.859	726.324	56.697	-368.418	854.883	853.474	-241.720	855.023	853.379	-118.640	854.743	853.569	-364.799	615.543	943.571	-208.072	611.756	942.023	-262.095	725.809	422.097	-79.781	724.746	431.458	-406.293	708.626	423.260	-223.894	726.122	410.578	-256.976	705.840	63.007	-77.861	702.447	60.215	-402.178	721.807	66.673	-152.757	722.316	72.234	-325.659	653.545	50.213	-124.618	672.322	47.128	-334.341	775.709	1289.617	-264.683	834.215	1221.107	-264.787	657.757	1351.402	-247.875	793.405	1296.800	-211.672	791.156	1296.463	-294.295	824.994	44.033	-105.633	821.755	48.440	-383.683	885.309	575.034	-88.960	907.040	607.132	-346.856	846.743	596.947	-109.424	858.918	622.193	-350.039	819.768	523.992	-113.449	840.338	550.601	-350.835	798.990	208.985	-103.515	685.558	175.279	-460.326	753.152	214.443	-116.675	691.567	184.487	-411.831
	5	0.04167	741.204	785.352	-243.078	720.306	790.726	-163.833	720.150	790.891	-319.462	718.948	420.008	-152.934	731.343	428.902	-333.101	715.979	59.029	-116.879	726.306	56.712	-368.418	854.891	853.443	-241.716	855.014	853.312	-118.613	854.768	853.573	-364.818	615.642	943.570	-208.064	611.777	941.981	-262.071	725.861	422.133	-79.791	724.794	431.456	-406.264	707.868	423.531	-223.295	726.104	410.448	-257.126	705.799	63.007	-77.882	702.415	60.238	-402.168	721.916	66.586	-152.749	722.346	72.288	-325.669	653.547	50.201	-124.606	672.344	47.140	-334.343	775.715	1289.645	-264.730	834.225	1221.138	-265.024	657.761	1351.406	-247.925	793.495	1296.754	-211.767	791.116	1296.534	-294.327	824.879	43.970	-105.452	821.784	48.427	-383.672	885.370	575.064	-88.933	907.061	607.135	-346.829	846.831	596.960	-109.356	858.778	622.097	-350.147	819.551	523.995	-113.218	840.334	550.582	-350.897	799.027	208.976	-103.516	685.555	175.285	-460.353	753.206	214.387	-116.764	691.603	184.500	-411.888
	6	0.05000	741.225	785.325	-243.144	720.293	790.692	-163.905	720.191	790.904	-319.534	719.038	420.027	-152.954	731.413	428.917	-333.083	715.959	59.021	-116.894	726.288	56.727	-368.438	854.913	853.414	-241.722	854.994	853.246	-118.588	854.832	853.582	-364.857	615.780	943.555	-208.043	611.809	941.962	-262.099	725.923	422.165	-79.808	724.836	431.452	-406.245	707.429	423.748	-223.054	726.176	410.680	-256.869	705.764	63.003	-77.901	702.384	60.261	-402.177	721.929	66.578	-152.762	722.372	72.317	-325.696	653.547	50.184	-124.597	672.364	47.164	-334.355	775.842	1289.748	-264.866	834.432	1221.310	-265.084	657.727	1351.432	-247.933	793.622	1296.948	-212.016	791.230	1296.616	-294.376	824.735	43.897	-105.215	821.819	48.412	-383.662	885.422	575.075	-88.900	907.086	607.138	-346.802	846.809	596.953	-109.261	858.795	622.153	-350.178	819.426	524.003	-113.118	840.421	550.774	-350.813	799.057	208.971	-103.515	685.569	175.288	-460.365	753.278	214.378	-116.772	691.650	184.503	-411.940
	7	0.05833	741.258	785.316	-243.230	720.285	790.675	-163.999	720.256	790.922	-319.628	719.160	420.034	-152.978	731.477	428.935	-333.068	715.977	59.007	-116.889	726.267	56.741	-368.474	854.951	853.396	-241.740	854.974	853.201	-118.570	854.927	853.592	-364.910	615.970	943.520	-207.995	611.843	941.974	-262.160	725.994	422.189	-79.828	724.877	431.447	-406.228	707.362	423.780	-223.072	726.055	411.104	-256.575	705.756	62.994	-77.903	702.352	60.285	-402.205	721.942	66.577	-152.767	722.114	72.286	-325.657	653.546	50.171	-124.594	672.375	47.196	-334.374	775.952	1289.755	-264.896	834.569	1221.340	-265.006	657.660	1351.484	-247.948	793.734	1297.051	-212.108	791.335	1296.580	-294.371	824.600	43.825	-104.986	821.865	48.415	-383.633	885.467	575.073	-88.867	907.115	607.137	-346.780	846.671	596.900	-109.152	858.887	622.242	-350.280	819.426	524.003	-113.118	840.505	550.910	-350.736	799.079	208.966	-103.506	685.597	175.298	-460.367	753.232	214.420	-116.814	691.533	184.487	-411.908
	8	0.06667	741.291	785.315	-243.323	720.276	790.666	-164.102	720.328	790.940	-319.731	719.299	420.029	-152.998	731.548	428.960	-333.043	716.019	58.990	-116.874	726.248	56.751	-368.516	854.990	853.383	-241.761	854.949	853.166	-118.562	855.031	853.600	-364.961	616.187	943.471	-207.922	611.893	941.993	-262.228	726.071	422.203	-79.843	724.926	431.445	-406.202	707.369	423.686	-223.032	725.842	411.378	-256.592	705.766	62.983	-77.898	702.323	60.306	-402.238	721.999	66.571	-152.765	721.980	72.217	-325.651	653.544	50.161	-124.597	672.376	47.228	-334.394	775.949	1289.703	-264.791	834.515	1221.243	-264.992	657.649	1351.528	-247.943	793.765	1296.938	-212.000	791.322	1296.542	-294.275	824.474	43.768	-104.787	821.910	48.437	-383.593	885.504	575.058	-88.839	907.151	607.135	-346.760	846.555	596.855	-109.139	859.158	622.392	-350.268	819.424	524.031	-113.112	840.563	550.806	-350.724	799.086	208.965	-103.491	685.632	175.325	-460.373	753.139	214.503	-116.899	691.509	184.462	-411.844
	9	0.07500	741.317	785.319	-243.407	720.264	790.662	-164.195	720.391	790.955	-319.824	719.413	420.017	-153.014	731.620	428.984	-333.014	716.062	58.973	-116.860	726.240	56.756	-368.545	855.023	853.373	-241.781	854.922	853.141	-118.565	855.124	853.605	-364.998	616.394	943.416	-207.836	611.972	942.005	-262.282	726.136	422.208	-79.855	724.976	431.444	-406.172	707.378	423.611	-222.943	726.200	411.167	-256.491	705.783	62.970	-77.891	702.305	60.320	-402.260	722.006	66.587	-152.766	722.215	72.116	-325.722	653.535	50.151	-124.606	672.377	47.248	-334.408	775.907	1289.616	-264.714	834.389	1221.086	-265.077	657.672	1351.545	-247.931	793.728	1296.699	-211.847	791.290	1296.509	-294.235	824.402	43.741	-104.682	821.938	48.462	-383.561	885.534	575.028	-88.819	907.193	607.128	-346.743	846.518	596.873	-109.160	859.210	622.452	-350.279	819.419	524.063	-113.090	840.683	550.613	-350.689	799.089	208.958	-103.477	685.663	175.352	-460.370	753.104	214.550	-116.908	691.715	184.422	-411.769
	10	0.08333	741.335	785.328	-243.478	720.256	790.664	-164.273	720.441	790.968	-319.902	719.476	419.996	-153.021	731.681	429.002	-332.989	716.097	58.957	-116.851	726.250	56.754	-368.555	855.051	853.365	-241.805	854.904	853.124	-118.590	855.197	853.606	-365.021	616.579	943.364	-207.744	612.076	942.013	-262.315	726.176	422.203	-79.861	725.019	431.440	-406.146	707.304	423.710	-222.909	726.391	411.109	-256.197	705.805	62.957	-77.885	702.307	60.324	-402.264	721.878	66.745	-152.803	722.448	72.165	-325.792	653.520	50.143	-124.620	672.378	47.249	-334.412	775.926	1289.584	-264.695	834.406	1221.052	-265.041	657.661	1351.546	-247.939	793.777	1296.706	-211.815	791.293	1296.455	-294.259	824.419	43.742	-104.707	821.949	48.494	-383.530	885.559	574.992	-88.805	907.239	607.117	-346.733	846.568	596.905	-109.114	858.988	622.282	-350.519	819.418	524.047	-113.065	840.759	550.613	-350.657	799.099	208.938	-103.467	685.681	175.352	-460.320	753.268	214.649	-116.749	691.868	184.468	-411.839
